<?xml version="1.0" encoding="UTF-8"?>
<svg id="a" xmlns="http://www.w3.org/2000/svg" xmlns:xlink="http://www.w3.org/1999/xlink" viewBox="0 0 512 512">
  <defs>
    <style>.e{fill:#FF5733;}.f{fill:#33FF57;}.g{fill:#5733FF;}</style>
  </defs>
  <!-- Letter 'S' -->
  <path class="e" d="M165.54239,110.60568c68.78516-2.88562,137.57031-5.7713,206.35547-8.65692-21.45178,52.21899-42.90369,104.43793-64.35547,156.65692-33.66669,1-67.33331,2-101,3-10.35437,57.66669-20.7088,115.33337-31.06317,173h-53.90491c14.65601-108,29.31207-216,43.96808-324Z"/>
  <!-- Letter 'R' -->
  <path class="f" d="M344.0541,339.60568h-75.38458c2.62427,18.66669,5.2486,37.33337,7.87286,56,41.50421-4.34802,83.00842-8.69592,124.5127-13.04395,1.49573,18.34802,2.99158,36.69592,4.4873,55.04395-65.66669-.66663-131.33331-1.33337-197-2,9.01501-45.17053,18.03009-90.341,27.0451-135.51147l107.9549-5.96747,.51172,45.47894Z"/>
</svg>
