<?xml version="1.0" encoding="UTF-8"?>
<svg id="a" xmlns="http://www.w3.org/2000/svg" xmlns:xlink="http://www.w3.org/1999/xlink" viewBox="0 0 512 512">
  <!-- <defs>
    <style>.e{fill:url(#b);}.e,.f,.g{stroke:#202124;stroke-miterlimit:10;stroke-width:17.64px;}.f{fill:url(#c);}.g{fill:url(#d);}</style>
    <linearGradient id="b" x1="158.17865" y1="306.19171" x2="293.78939" y2="95.78352" gradientTransform="matrix(1, 0, 0, 1, 0, 0)" gradientUnits="userSpaceOnUse">
      <stop offset="0" stop-color="#39a845"/>
      <stop offset="1" stop-color="#7fd37f"/>
    </linearGradient>
    <linearGradient id="c" x1="248.40533" y1="432.66891" x2="395.97239" y2="302.15852" gradientTransform="matrix(1, 0, 0, 1, 0, 0)" gradientUnits="userSpaceOnUse">
      <stop offset="0" stop-color="#ffc300"/>
      <stop offset="1" stop-color="#fee715"/>
    </linearGradient>
    <linearGradient id="d" x1="223.07643" y1="194.16682" x2="297.21609" y2="167.68273" gradientTransform="matrix(1, 0, 0, 1, 0, 0)" gradientUnits="userSpaceOnUse">
      <stop offset="0" stop-color="#ffd500"/>
      <stop offset="1" stop-color="#fee715"/>
    </linearGradient> -->
  </defs>
  <!-- Letter 'S' -->
  <!-- <path class="e" d="M214.672 89.333l-10.337 16.962c12.25 7.473 26.225 14.038 42.313 20.76 19.88 8.456 34.18 15.037 43.9 19.635 11.765 5.394 21.237 10.58 28.28 15.49 6.14 4.24 9.207 8.363 9.207 12.396 0 4.144-2.842 7.787-8.528 11.054-5.558 3.153-14.245 6.47-26.063 9.973-12.13 3.6-21.106 6.43-26.844 8.58-10.55 4.11-20.44 9.8-29.733 16.957-8.604 6.696-14.09 15.575-16.53 26.71-2.443 11.132-1.792 22.514 1.86 33.93 3.98 13.107 11.372 22.82 22.194 29.924 11.087 7.565 24.682 11.355 40.907 11.355 19.243 0 35.1-5.17 47.594-15.555 12.493-10.38 21.94-23.976 28.36-40.79l17.27 9.054c-9.027 19.098-21.407 34.343-37.145 45.727-15.737 11.383-33.728 17.077-54.977 17.077-26.122 0-47.196-9.217-63.224-27.652-16.028-18.437-24.05-42.015-24.05-70.736 0-25.676 6.133-47.743 18.4-66.204 12.266-18.457 28.496-32.954 48.686-43.493 18.745-9.643 39.05-17.243 60.933-22.803 26.186-6.397 48.457-11.91 66.813-16.537 18.358-4.624 31.762-9.236 40.212-13.834l-13.836-26.168c-11.804 4.34-25.26 8.897-40.345 13.56-15.087 4.673-33.628 9.75-55.606 15.253-21.976 5.505-45.673 13.09-71.085 22.762z"/>
  <!-- Letter 'R' -->
  <path class="f" d="M314.333 91.57l-5.1 8.27c15.35 9.37 28.43 19.76 39.25 31.16 12.36 13.59 21.68 28.46 27.97 44.6 6.29 16.14 9.44 32.55 9.44 49.24 0 9.58-1.95 18.69-5.84 27.33-3.9 8.63-9.57 16.19-17.01 22.68-7.43 6.48-16.6 11.32-27.49 14.5-10.9 3.19-24.08 4.78-39.55 4.78-16.42 0-31.35-3.05-44.77-9.17-13.42-6.11-24.56-15.09-33.42-26.94-8.86-11.85-15.66-25.7-20.39-41.55l-1.67-5.54c-2.55-9.38-6.16-18.7-10.8-27.95-4.63-9.25-10.55-17.8-17.77-25.65-7.22-7.85-15.96-14.55-26.21-20.01-10.24-5.45-22.07-8.18-35.5-8.18-15.11 0-28.33 4.45-39.66 13.34-11.32 8.9-19.93 20.05-25.8 33.42-5.88 13.37-8.82 27.68-8.82 42.93 0 17.33 4.58 32.42 13.74 45.29 9.17 12.86 22.12 22.5 38.85 28.91 16.73 6.41 35.96 9.61 57.7 9.61 23.77 0 43.78-4.76 60.04-14.27 16.27-9.5 28.89-22.68 37.84-39.52l-16.18-10.9c-8.57 15.91-20.68 28.54-36.34 37.88-15.67 9.35-33.79 14.03-54.37 14.03-15.14 0-28.39-2.57-39.74-7.7-11.34-5.13-20.8-11.87-28.38-20.22-7.58-8.35-13.4-18.44-17.46-30.28-4.07-11.84-6.1-25.07-6.1-39.7 0-18.84 4.84-34.95 14.53-48.33 9.7-13.38 23.25-24.01 40.64-31.9 17.39-7.89 38.27-11.84 62.62-11.84 14.42 0 27.53 1.98 39.32 5.95 11.8 3.97 21.77 9.46 29.9 16.47 8.14 7.01 14.34 15.69 18.6 26.05 4.26 10.36 6.39 22.16 6.39 35.42 0 17.85-4.67 33.1-14.02 45.74-9.35 12.64-22.42 22.2-39.22 28.69z"/> -->
</svg>